<svg xmlns="http://www.w3.org/2000/svg" viewBox="0 0 360 260" role="img" aria-label="诃子裙">
  <defs>
    <linearGradient id="bg" x1="0" x2="1" y1="0" y2="1"><stop stop-color="#120709"/><stop offset=".55" stop-color="#34100f"/><stop offset="1" stop-color="#0b1416"/></linearGradient>
    <pattern id="silk" width="28" height="28" patternUnits="userSpaceOnUse"><path d="M0 14c8-8 20-8 28 0M0 28c8-8 20-8 28 0" fill="none" stroke="#fff" stroke-opacity=".08" stroke-width="2"/></pattern>
  </defs>
  <rect width="360" height="260" rx="24" fill="url(#bg)"/>
  <circle cx="278" cy="58" r="80" fill="#0f766e" opacity=".18"/>
  <rect width="360" height="260" rx="24" fill="url(#silk)"/>
  <path d="M180 58l48 34 48 128H84l48-128Z" fill="#0f766e" stroke="#ffe1a3" stroke-width="6"/><path d="M132 92h96l18 118H114Z" fill="#f9a8d4" opacity=".7"/><path d="M118 126h124M108 168h144M180 66v146" stroke="#fff1bf" stroke-width="5" opacity=".55"/>
  <path d="M128 112c30 18 74 18 104 0M142 190c24 14 52 14 76 0" fill="none" stroke="#f8d48a" stroke-width="6" stroke-linecap="round"/>
  <text x="24" y="232" fill="#ffe7ad" font-family="Microsoft YaHei, Noto Sans SC, sans-serif" font-size="22" font-weight="700">诃子裙</text>
  <text x="24" y="252" fill="#f8c469" font-family="Microsoft YaHei, Noto Sans SC, sans-serif" font-size="12">唐制 · 天水碧</text>
</svg>