<svg xmlns="http://www.w3.org/2000/svg" viewBox="0 0 396 240" role="img" aria-label="经典剧目赏析">
  <defs>
    <linearGradient id="bg" x1="0" x2="1" y1="0" y2="1"><stop stop-color="#0b0507"/><stop offset=".52" stop-color="#321014"/><stop offset="1" stop-color="#151009"/></linearGradient>
    <radialGradient id="glow" cx=".28" cy=".2" r=".86"><stop stop-color="#8b5cf6" stop-opacity=".42"/><stop offset=".7" stop-color="#000" stop-opacity="0"/></radialGradient>
  </defs>
  <rect width="396" height="240" rx="26" fill="url(#bg)"/>
  <rect width="396" height="240" rx="26" fill="url(#glow)"/>
  <path d="M0 188c72-24 134-22 198 0s126 24 198 0v52H0Z" fill="#050203" opacity=".5"/>
  <path d="M118 78h160v140H118z" fill="#efe4c8" opacity=".9" stroke="#8b5cf6" stroke-width="8"/><path d="M150 116h98M150 148h90M150 180h72" stroke="#5a3020" stroke-width="8" stroke-linecap="round"/><path d="M118 78c28 18 28 122 0 140M278 78c-28 18-28 122 0 140" fill="none" stroke="#ffe6ad" stroke-width="7"/>
  <text x="24" y="202" fill="#ffe7ad" font-family="Microsoft YaHei, Noto Sans SC, sans-serif" font-size="24" font-weight="800">经典剧目赏析</text>
  <text x="24" y="224" fill="#f8c469" font-family="Microsoft YaHei, Noto Sans SC, sans-serif" font-size="13">人物 情节 舞台调度</text>
</svg>