<svg xmlns="http://www.w3.org/2000/svg" viewBox="0 0 396 240" role="img" aria-label="戏曲化妆与造型">
  <defs>
    <linearGradient id="bg" x1="0" x2="1" y1="0" y2="1"><stop stop-color="#0b0507"/><stop offset=".52" stop-color="#321014"/><stop offset="1" stop-color="#151009"/></linearGradient>
    <radialGradient id="glow" cx=".28" cy=".2" r=".86"><stop stop-color="#dc2626" stop-opacity=".42"/><stop offset=".7" stop-color="#000" stop-opacity="0"/></radialGradient>
  </defs>
  <rect width="396" height="240" rx="26" fill="url(#bg)"/>
  <rect width="396" height="240" rx="26" fill="url(#glow)"/>
  <path d="M0 188c72-24 134-22 198 0s126 24 198 0v52H0Z" fill="#050203" opacity=".5"/>
  <circle cx="198" cy="142" r="66" fill="#f8e6cf" stroke="#dc2626" stroke-width="8"/><path d="M156 128c20-24 64-24 84 0M158 166c24 20 56 20 80 0M198 82c-14 22-20 52-14 100h28c6-48 0-78-14-100Z" fill="none" stroke="#2a1214" stroke-width="8" stroke-linecap="round"/><circle cx="176" cy="144" r="7" fill="#dc2626"/><circle cx="220" cy="144" r="7" fill="#dc2626"/>
  <text x="24" y="202" fill="#ffe7ad" font-family="Microsoft YaHei, Noto Sans SC, sans-serif" font-size="24" font-weight="800">戏曲化妆与造型</text>
  <text x="24" y="224" fill="#f8c469" font-family="Microsoft YaHei, Noto Sans SC, sans-serif" font-size="13">脸谱 妆面 服饰</text>
</svg>