<svg xmlns="http://www.w3.org/2000/svg" viewBox="0 0 360 260" role="img" aria-label="剪纸书签套装">
  <defs>
    <linearGradient id="bg" x1="0" x2="1" y1="0" y2="1"><stop stop-color="#13070a"/><stop offset=".48" stop-color="#2e1116"/><stop offset="1" stop-color="#111a1f"/></linearGradient>
    <radialGradient id="glow" cx=".3" cy=".14" r=".9"><stop stop-color="#ef4444" stop-opacity=".62"/><stop offset=".58" stop-color="#ef4444" stop-opacity=".12"/><stop offset="1" stop-color="#000" stop-opacity="0"/></radialGradient>
    <radialGradient id="stage" cx=".5" cy=".7" r=".48"><stop stop-color="#ffe2a4" stop-opacity=".24"/><stop offset=".62" stop-color="#ef4444" stop-opacity=".08"/><stop offset="1" stop-color="#000" stop-opacity="0"/></radialGradient>
    <pattern id="silk" width="30" height="30" patternUnits="userSpaceOnUse"><path d="M0 15c9-8 21-8 30 0M0 30c9-8 21-8 30 0" fill="none" stroke="#fff" stroke-opacity=".055" stroke-width="2"/></pattern>
    <filter id="softShadow" x="-20%" y="-20%" width="140%" height="140%"><feDropShadow dx="0" dy="18" stdDeviation="16" flood-color="#000" flood-opacity=".34"/></filter>
  </defs>
  <rect width="360" height="260" rx="24" fill="url(#bg)"/>
  <rect width="360" height="260" rx="24" fill="url(#glow)"/>
  <rect width="360" height="260" rx="24" fill="url(#silk)"/>
  <rect width="360" height="260" rx="24" fill="url(#stage)"/>
  <path d="M0 196c70-26 132-20 198 4 58 22 103 20 162-8v68H0Z" fill="#061018" opacity=".58"/>
  <ellipse cx="184" cy="198" rx="112" ry="30" fill="#ffe0a3" opacity=".13"/>
  <g filter="url(#softShadow)"><g fill="none" stroke="#ef4444" stroke-width="8" stroke-linecap="round"><path d="M112 105c48-48 100 48 148 0"/><path d="M116 158c46-42 96 42 142 0"/><path d="M130 76v118M242 76v118"/></g><rect x="102" y="65" width="170" height="150" rx="18" fill="#fff4df" opacity=".18" stroke="#f6d18a"/></g>
  <path d="M28 28c52-12 108-10 168 8" fill="none" stroke="#fff6d2" stroke-opacity=".18" stroke-width="3" stroke-linecap="round"/>
  <text x="24" y="228" fill="#fff0bd" font-family="Microsoft YaHei, Noto Sans SC, sans-serif" font-size="22" font-weight="800">剪纸书签套装</text>
  <text x="24" y="250" fill="#f8c469" font-family="Microsoft YaHei, Noto Sans SC, sans-serif" font-size="12">晋北剪纸 · 十二枚</text>
</svg>