<svg xmlns="http://www.w3.org/2000/svg" viewBox="0 0 480 270" role="img" aria-label="傅山进京">
  <defs>
    <linearGradient id="bg" x1="0" x2="1" y1="0" y2="1"><stop stop-color="#0a0507"/><stop offset=".5" stop-color="#351013"/><stop offset="1" stop-color="#15100b"/></linearGradient>
    <radialGradient id="spot" cx=".5" cy=".18" r=".9"><stop stop-color="#8b5e34" stop-opacity=".45"/><stop offset=".72" stop-color="#000" stop-opacity="0"/></radialGradient>
  </defs>
  <rect width="480" height="270" rx="28" fill="url(#bg)"/>
  <rect width="480" height="270" rx="28" fill="url(#spot)"/>
  <path d="M0 214c82-32 148-32 230 0s164 32 250 0v56H0Z" fill="#050203" opacity=".55"/>
  <g transform="translate(60 8)"><path d="M112 76h150v126H112z" fill="#ead6ad" opacity=".95"/><path d="M100 78c24-18 24 142 0 124M262 78c24-18 24 142 0 124" fill="none" stroke="#8b5e34" stroke-width="14" stroke-linecap="round"/><path d="M140 112h92M140 142h84M140 172h72" stroke="#5a3020" stroke-width="7" stroke-linecap="round"/></g>
  <text x="28" y="228" fill="#ffe7ad" font-family="Microsoft YaHei, Noto Sans SC, sans-serif" font-size="28" font-weight="800">傅山进京</text>
  <text x="28" y="252" fill="#f8c469" font-family="Microsoft YaHei, Noto Sans SC, sans-serif" font-size="14">文人气节 · 名家导赏</text>
</svg>